<svg width="40" height="71" viewBox="0 0 40 71" fill="none" xmlns="http://www.w3.org/2000/svg">
<path d="M13.278 57.1123L13.5084 56.9145L13.3788 57.0081L13.924 56.4464C14.0058 56.3762 14.0863 56.3046 14.1656 56.2317C14.127 56.2649 14.0923 56.2858 14.0683 56.2964L14.2416 56.1151C14.7533 55.7425 15.916 54.7084 16.2752 54.4331C16.7283 54.0476 17.2653 53.5583 17.5876 53.2379C17.2856 53.532 16.8704 53.9084 16.9565 53.7583C17.536 53.1288 17.7311 52.7391 18.8835 51.7996L18.2588 52.4001L19.7952 51.1771C20.2302 50.6489 19.0284 51.7874 18.7852 51.9285C19.9418 50.9401 20.6707 49.8935 21.2927 49.5184C21.2945 49.3829 21.2984 49.1558 22.0204 48.4721C21.5837 49.0464 22.5 48.1071 22.1614 48.5973C22.4482 48.3969 22.9344 47.8029 23.0271 47.8131L22.9316 47.85C24.0429 46.565 24.6148 46.3449 25.1936 45.895C26.6841 44.5104 27.3108 43.8187 28.5148 42.6785C28.5152 42.5884 28.7123 42.1517 29.1957 41.6944C29.4809 41.5402 30.5891 40.5265 30.78 40.4976C29.9582 41.3559 30.0126 41.1081 29.4819 41.5844C29.1399 42.0775 29.5266 41.7022 28.9948 42.3131C29.4319 41.8277 31.1619 40.3056 31.5973 39.7325L31.4047 39.8971C32.178 39.0576 32.1359 38.7141 33.6249 37.5089L34.3272 36.9259C34.2877 36.9486 34.2746 36.943 34.2508 36.9523C34.7809 36.4323 34.9503 36.2207 35.1435 36.0052C35.1944 35.9483 35.2464 35.8923 35.2997 35.8374C35.3717 35.7636 35.4453 35.6912 35.5204 35.6202C35.6934 35.4559 35.9241 35.248 36.2863 34.9334C36.1746 35.0304 36.2235 34.9663 36.1118 35.0636C36.2556 34.9067 36.4048 34.7546 36.5593 34.6075C36.2745 34.33 36.0189 34.0533 35.7686 33.7788L35.4008 33.3752L35.0926 33.0429C34.7151 32.8079 35.1002 33.1778 35.2437 33.4101C34.0344 32.2925 32.8726 30.9484 32.2196 30.1601L31.4175 29.4616C31.8421 29.9252 32.3243 30.5272 32.1457 30.4331C31.7398 30.0151 31.8526 30.0628 31.2465 29.5025C31.3049 29.6416 31.5138 29.9206 31.7386 30.242C30.4398 29.1268 31.6166 29.8303 30.6263 29.1283C30.24 28.7569 30.0786 28.4802 30.0883 28.3895L29.3221 27.7806C29.3105 27.642 28.4522 26.8058 27.8972 26.2507C27.8566 26.1567 28.4225 26.6219 28.6111 26.8533C28.6208 26.7626 28.0441 26.1587 27.6566 25.7863C27.3766 25.7832 25.1456 23.3231 25.4396 23.9218C23.7479 22.2016 21.3224 19.8328 20.2344 18.6703C19.8182 18.3423 19.0458 17.6006 19.4428 18.109C18.0443 16.7599 17.4654 15.9265 16.0402 14.6235C15.908 14.5294 16.6661 15.2304 16.5708 15.2273C15.7194 14.2982 14.8621 13.6908 13.4919 12.2966C13.7263 12.5275 13.7666 12.6217 13.7851 12.6674C13.8327 12.669 13.2563 12.0648 12.9146 11.6919C12.6981 11.5059 13.1703 11.9709 13.038 11.8771C10.2527 9.31761 8.37004 7.13652 5.66041 4.53228C6.43419 5.27591 6.63446 5.64617 6.60496 5.69054L5.84703 4.96183C5.60141 4.63614 5.03331 4.08801 4.59285 3.59645C4.5174 3.55673 4.26777 3.35155 4.48168 3.60013C3.68823 2.92374 3.14683 2.32 2.5687 1.67015L2.12381 1.17221L2.06703 1.10866L2.03311 1.0577C2.00983 1.02457 1.98294 0.993761 1.97151 0.953848C1.93458 0.882353 1.91572 0.801946 1.9087 0.721151C1.90268 0.639774 1.91091 0.55549 1.93719 0.47547C1.95305 0.438076 1.96248 0.388282 1.98214 0.368907C1.99001 0.355471 1.99665 0.341403 2.00201 0.326862L2.00622 0.315043L2.02328 0.295474L2.0574 0.256142L2.12622 0.176509L2.13485 0.166435L2.13605 0.165271C2.0883 0.216422 2.12341 0.179027 2.11298 0.190265L2.11478 0.189103L2.1184 0.186584L2.13244 0.176509L2.16034 0.155778L2.21431 0.111214C2.23605 0.101528 2.2574 0.0910571 2.27833 0.0798255C2.32368 0.0495999 2.35639 0.0492135 2.3895 0.0321632C2.39733 0.0218942 2.44087 0.0178252 2.48121 0.0137563L2.6008 0L2.46556 0.00154918C2.44709 0.00251794 2.41338 0.000386644 2.40134 0.00426171C2.3718 0.0121907 2.34146 0.0169992 2.31084 0.0186005L2.24442 0.0441752C2.19345 0.0563817 2.1483 0.0871887 2.09773 0.119158L2.07806 0.130783L2.06783 0.136595L2.06301 0.139503L2.06161 0.140277L2.06101 0.140665C2.06924 0.131752 2.04134 0.161203 2.07946 0.120515L2.07666 0.123421L2.03071 0.169147C1.99955 0.200417 1.96838 0.231674 1.93719 0.262923C1.88181 0.33868 1.80314 0.477989 1.78528 0.626017C1.77317 0.77563 1.80174 0.925705 1.86816 1.06138C1.91051 1.12493 1.94221 1.18093 1.99799 1.24487L2.15191 1.42041L2.46936 1.78273L1.85652 1.3152L2.74709 2.33764C2.11699 1.81683 1.71786 1.24738 1.59505 1.17434C1.6083 1.22181 1.64663 1.27412 1.69057 1.3305L1.7582 1.41692L1.82402 1.48803C1.9091 1.58084 1.97773 1.66221 1.96348 1.68488C1.81618 1.55255 1.71083 1.46826 1.6115 1.33922C1.56054 1.284 1.53144 1.22394 1.50495 1.16814C1.47806 1.11253 1.45157 1.06235 1.44274 1.00771L1.40883 0.851546L1.40482 0.687243C1.3994 0.630086 1.41485 0.570023 1.42408 0.503759C1.4299 0.436914 1.45338 0.367356 1.48167 0.289854C1.38374 0.48477 1.34703 0.748276 1.42689 1.01546C1.46622 1.14741 1.52923 1.284 1.62756 1.40103C1.65004 1.4299 1.67592 1.46536 1.69759 1.48919L1.762 1.55952L1.89405 1.70212C2.27423 2.10873 2.66015 2.51029 3.05171 2.90669L5.25064 5.12052C5.42342 5.30865 5.12743 4.93568 5.10937 4.89034C5.58134 5.35515 5.91145 5.58882 6.48697 6.19178C6.79981 6.60932 6.15867 5.95967 5.85666 5.68027C5.84542 5.76979 5.99733 5.91045 6.31901 6.23596C6.45967 6.23809 8.15152 7.95785 8.66042 8.28606C10.3984 10.0062 8.19967 8.18744 9.9477 9.8171L10.5401 10.236C11.476 11.258 12.7115 12.556 13.8569 13.6294L13.6218 13.3973C13.4971 13.2117 13.7799 13.4442 13.9131 13.5393C14.7999 14.33 15.4699 15.1628 16.0661 15.5851C16.9545 16.6056 18.5137 18.2316 19.5824 19.3475C19.987 19.5362 18.2203 17.861 17.8228 17.3512L18.8347 18.3291C18.2103 17.7236 18.0028 17.4465 17.6871 17.0269C18.5939 17.8649 18.7942 18.2347 19.6087 19.0725C19.5716 18.9818 19.7014 19.0735 20.0901 19.4472L20.1309 19.6206C20.1435 19.622 20.1919 19.6584 20.3161 19.7698L21.7701 21.2557C21.423 20.9777 21.3473 21.0213 20.9598 20.6487C21.1384 20.7429 20.8186 20.4185 20.4305 20.0461C20.724 20.4172 20.0149 19.7189 19.9856 19.7629C20.7632 20.51 21.7067 21.439 22.1964 21.9484L22.4255 22.0462C23.181 22.7443 23.9259 23.5323 24.4457 23.9985L24.3216 23.8131C25.2281 24.6505 26.06 25.5334 26.9099 26.2335C27.6279 27.0678 28.5628 28.0881 29.1331 28.786C29.3964 29.1996 31.5578 30.9271 32.3334 31.9004C32.4024 31.9498 31.7829 31.249 31.5098 30.925C32.1158 31.4855 32.4849 32.0399 32.7576 32.1358C31.397 30.8785 32.8984 32.1379 32.3233 31.5349C32.945 32.1383 33.5865 32.7879 33.8613 33.1133C32.8533 32.1385 34.0997 33.575 33.1162 32.5523C33.4581 32.9495 33.8751 33.4002 34.323 33.8584L34.7574 34.2998C34.8649 34.405 34.9753 34.5073 35.0888 34.6065L35.0308 34.6695C35.1058 34.6695 35.0835 34.7243 34.9214 34.9109C34.9176 34.9148 34.7007 35.0192 34.7045 35.0155C34.6043 35.1217 34.7235 35.0376 34.8291 34.9692C34.9326 34.9026 35.0223 34.8516 34.789 35.0954C34.7041 35.155 34.6639 35.1787 34.4932 35.3333C34.3412 35.4699 34.1914 35.6088 34.0439 35.7499L33.1005 36.6679C32.4801 37.2733 31.9138 37.8075 31.6278 37.9176C30.9991 38.6558 33.0221 36.7041 32.0552 37.798C32.7281 37.2685 33.4995 36.3863 33.7866 36.2747C33.1635 36.8291 33.6407 36.5557 33.2554 36.9294L32.5348 37.5229L32.6793 37.3772C31.4779 38.3806 29.7417 40.1322 28.2973 41.5003C26.999 42.5868 26.0398 43.2719 24.5958 44.6846C25.0756 44.319 23.4373 45.8973 24.4453 45.1035C23.8174 45.796 23.1004 46.3861 23.0496 46.3627C23.6287 45.7787 23.2459 46.1502 23.7259 45.651C23.344 45.932 22.5702 46.683 22.2814 47.0193C22.4257 46.8734 22.3782 46.936 22.4251 46.9184C21.7491 47.63 22.0414 47.2018 21.5117 47.6765C21.4133 47.8943 20.4014 48.7815 19.9679 49.2634L19.2012 49.8288C19.6322 49.5275 18.5749 50.4755 18.5231 50.6315C17.9963 51.0591 17.5157 51.3803 16.7935 52.1089C17.1297 51.8444 16.1646 52.8027 16.2124 52.8734C15.0058 54.1502 13.9535 54.736 12.8424 55.9762C12.8937 55.9539 13.1753 55.7588 12.8404 56.1114C12.5478 56.3614 12.0722 56.8343 11.7706 57.1129L11.7816 57.1056L11.7646 57.1187C11.6169 57.2549 11.5183 57.3355 11.5003 57.3247C10.936 57.755 10.6153 57.948 9.57145 58.859C9.57526 58.7217 10.441 57.9375 10.8264 57.6084L11.2087 57.3712C11.4044 56.9806 12.1232 56.5233 12.3164 56.2689C11.5978 56.7262 9.91118 58.4128 8.8061 59.3345C9.33747 58.6352 10.6884 57.3016 11.892 56.1622L11.4086 56.709L12.0335 56.1081L11.5035 56.762C12.0812 56.179 12.6108 55.7043 13.1406 55.1847C12.5141 55.7869 12.366 56.1143 12.7045 55.7582C13.3332 55.02 13.4749 55.1002 14.003 54.5821C13.7131 54.8743 13.3288 55.2479 13.6167 55.0462C14.5834 53.9522 14.9213 53.7306 15.7872 52.723C15.7842 52.9488 16.9916 51.5822 17.2292 51.5355L16.7959 51.9726L17.8053 51.1325C18.5785 50.2044 16.9416 51.7814 18.1946 50.443C19.4006 49.256 19.4903 49.4037 20.4566 48.488C20.0729 48.7263 19.2549 49.4029 18.4846 50.1504L18.9192 49.667C18.6321 49.8677 17.5719 50.9074 17.043 51.4261C18.0024 50.651 16.6547 51.8475 16.3153 52.2939C16.1755 52.3011 16.7516 51.7649 16.0304 52.3586C16.6575 51.7556 16.7544 51.6725 17.5256 50.8799C15.8349 52.5706 15.7487 52.1521 14.3022 53.656C15.0246 53.0164 14.1563 53.9813 14.1052 54.0927C13.7715 54.3996 13.095 55.0225 12.8064 55.2688L12.9569 54.9388C12.0407 55.7439 11.9392 56.2329 10.8307 57.1129C10.6422 57.1842 11.6996 56.2366 11.5067 56.4011C10.0649 57.6773 9.72136 58.3066 8.5663 59.5608C8.46838 59.5999 8.42202 59.5277 7.94242 59.8933C8.13446 59.8185 7.8463 60.1535 8.37125 59.7278C7.98516 60.1473 7.4572 60.5757 7.07292 60.9035C7.89325 60.0465 6.64108 61.1612 6.44944 61.28C6.0168 61.7165 6.64148 61.205 6.93024 60.9583C6.59051 61.3162 6.25299 61.8051 5.96543 61.9169C6.01178 61.9887 7.11687 61.112 7.79111 60.4914L7.35707 60.9293C7.69359 60.664 7.74215 60.6003 8.17319 60.1659C7.78871 60.6274 7.88302 60.6363 8.0265 60.5809C8.07426 60.5179 7.98075 60.5974 8.0261 60.5369C8.36543 60.1795 8.65419 59.9328 8.60403 60.0431C9.00416 59.8135 8.16275 60.5672 7.96289 60.8382L7.40543 61.3453L5.30182 62.8732C4.48409 63.604 4.19252 64.0063 3.64027 64.6153L3.4083 64.7048C2.73044 65.3732 2.10596 66.0186 2.63332 65.6799C2.63472 65.6336 2.73064 65.5517 2.87612 65.4048C2.90542 65.3947 2.94636 65.3684 2.99512 65.3318C3.01358 65.3219 3.02542 65.3182 3.04127 65.3108L1.76743 66.4639C3.11432 65.3587 1.95605 66.5259 2.28816 66.4439C1.99231 66.7119 1.69646 66.9798 1.4006 67.2478L1.29084 67.3472L1.14776 67.5032L1.10843 67.5467C1.10442 67.55 1.09217 67.5669 1.08054 67.5836L1.04843 67.6304C1.00749 67.6915 0.973976 67.7473 0.947891 67.7934C0.895115 67.8866 0.871239 67.9406 0.874046 67.9377C0.933113 67.7978 1.00589 67.6636 1.09137 67.5371C1.09794 67.5279 1.10456 67.5188 1.11124 67.5097L1.14595 67.4617C1.16269 67.4375 1.17936 67.4132 1.19592 67.3888L1.20034 67.3819L1.20094 67.3811L1.25873 67.3193L1.25993 67.3175L1.26234 67.3144L1.27097 67.3034L1.28341 67.2856C1.29605 67.266 1.29284 67.2619 1.278 67.2697C1.27057 67.2736 1.26033 67.2803 1.24749 67.2894L1.23746 67.2968L1.23666 67.2974L1.17665 67.3613L1.17545 67.3625L1.17284 67.3648L1.16782 67.3695L1.14576 67.3906C1.11365 67.4224 1.07713 67.458 1.03217 67.5068C0.948296 67.6186 0.862206 67.7556 0.794983 67.8938C0.750031 68.0108 0.707291 68.1321 0.679398 68.2456C0.659531 68.3609 0.646889 68.469 0.638863 68.5574C0.655491 68.6131 0.667896 68.6699 0.675987 68.7273C0.692242 68.8135 0.702274 68.9276 0.748428 69.0569C0.768696 69.1218 0.791973 69.1915 0.818462 69.2644C0.851772 69.3345 0.890499 69.4078 0.93264 69.4833C0.974388 69.5623 1.02543 69.6363 1.08475 69.704C1.11445 69.7396 1.14495 69.7755 1.17565 69.8121L1.22341 69.866L1.22943 69.8726L1.30006 69.9342L1.3075 69.9404L1.32235 69.9528L1.44435 70.0545C1.52822 70.1142 1.65405 70.1884 1.76562 70.2436L1.85271 70.2851L1.92635 70.3102L2.07566 70.3566C2.17499 70.3893 2.27652 70.4044 2.37806 70.4141C2.58014 70.4436 2.7788 70.4207 2.9594 70.3936C3.138 70.3498 3.30295 70.304 3.43238 70.2293L3.34509 70.2498C3.46489 70.1855 3.60135 70.1219 3.71894 70.0187C3.77914 69.9706 3.84415 69.9162 3.90054 69.865L3.99566 69.7691L4.41626 69.3578C4.70238 69.0834 4.99312 68.8135 5.28837 68.5483C5.28837 68.5932 6.05553 68.0718 6.438 67.8347C5.58957 68.7038 6.13639 68.2299 6.10931 68.3392C6.196 68.2481 6.35774 68.0902 6.38563 68.0805C6.53051 67.9788 6.24215 68.27 6.24035 68.3159C5.75954 68.749 5.27774 69.194 4.85653 69.5651C4.66779 69.7327 4.47496 69.896 4.2782 70.0549L4.12569 70.1742C4.036 70.2432 3.94709 70.3048 3.86221 70.3583C3.68863 70.46 3.51626 70.5216 3.37639 70.5633C3.57185 70.461 3.75666 70.3703 3.90676 70.2477C3.98121 70.1919 4.0677 70.1237 4.12569 70.0754L4.22823 69.9927C4.36629 69.8832 4.51037 69.771 4.65546 69.6029C4.51545 69.7055 4.37975 69.8135 4.2487 69.9266C4.21378 69.957 4.17826 69.9877 4.14235 70.0192L4.07773 70.0758L3.95472 70.175C3.79177 70.3118 3.59351 70.4143 3.38301 70.5057C2.92455 70.68 2.41882 70.7009 1.94662 70.565C1.88422 70.547 1.82181 70.5276 1.7596 70.5063C1.60328 70.439 1.45358 70.3582 1.31231 70.2649C1.29023 70.2506 1.28381 70.2453 1.27919 70.2417L1.26054 70.2271L1.22301 70.1981L1.14736 70.139L1.13793 70.1314L1.13311 70.1275L1.04421 70.0498L1.0398 70.0452L1.00468 70.0074L0.935249 69.9301C0.843544 69.8247 0.754047 69.7164 0.688229 69.5879L0.620804 69.4901C0.57016 69.4183 0.527317 69.3417 0.492973 69.2615C0.453239 69.1745 0.417122 69.0844 0.391838 69.0162C0.368359 68.9478 0.35973 68.9003 0.35973 68.9003L0.349899 68.7994C0.346489 68.7348 0.334049 68.6428 0.341473 68.5331C0.350601 68.408 0.366875 68.2835 0.390232 68.1602C0.428963 68.0242 0.466892 67.8926 0.533512 67.7432C0.596035 67.6177 0.668282 67.4969 0.749634 67.3819L0.789364 67.3272C0.805019 67.3059 0.802807 67.3111 0.810432 67.3018L0.927425 67.1747L1.01451 67.0819L1.02134 67.0759L1.03458 67.0639L1.05906 67.0422C1.07238 67.0304 1.08562 67.0185 1.0988 67.0066C1.12087 66.9868 1.13372 66.9758 1.13372 66.9758C1.08916 67.0112 1.05264 67.0381 1.02073 67.0602L1.0089 67.0682L1.00327 67.0721L1.00288 67.0722L0.921005 67.1596L0.920197 67.1602L0.918999 67.1614L0.916187 67.1635L0.896118 67.1792L0.859196 67.2067L0.791367 67.253L0.756657 67.277C0.741207 67.2904 0.705082 67.3354 0.678394 67.3689C0.619999 67.4431 0.554985 67.5345 0.485954 67.6554L0.434784 67.751L0.399063 67.8374C0.374981 67.8984 0.350296 67.9668 0.326015 68.0433C0.243942 68.3442 0.156052 68.8143 0.400463 69.4287C0.359528 69.3581 0.262608 69.1671 0.22448 68.8854C0.207222 68.7438 0.188759 68.5818 0.211834 68.4051C0.220192 68.3134 0.232986 68.2221 0.250164 68.1315C0.274445 68.0389 0.303345 67.9436 0.336857 67.8476C0.376389 67.6868 0.590096 67.3371 0.699661 67.209L0.794582 67.1034L0.908958 66.98L0.935452 66.9558L0.98843 66.907C1.12529 66.7815 1.25838 66.6523 1.38756 66.5195L1.72026 66.3476C1.57879 66.4009 2.63893 65.3612 1.821 66.0374C1.50668 66.3116 1.1923 66.5858 0.877857 66.8599L0.850567 66.8835L0.837322 66.8952L0.830704 66.9008L0.829098 66.9023L0.72916 67.0089L0.726154 67.012L0.63726 67.1067L0.597927 67.1488C0.59692 67.1476 0.568829 67.1858 0.555786 67.2034L0.508827 67.2691C0.449028 67.3551 0.40107 67.434 0.363747 67.4995C0.288895 67.6326 0.25679 67.7089 0.260201 67.7035C0.255989 67.7095 0.287487 67.6217 0.351101 67.4904C0.38731 67.4158 0.426746 67.3428 0.469299 67.2714L0.578465 67.0978L0.664345 66.9572L0.769299 66.8446L0.770699 66.8428L0.773113 66.8395L0.777927 66.8332L0.786758 66.8215C0.792175 66.8144 0.797188 66.808 0.801003 66.8025C0.808826 66.7921 0.813648 66.7863 0.813648 66.7863L0.767895 66.8289L0.762474 66.8341L0.652103 66.9517L0.640671 66.9645L0.615383 66.9936C0.597122 67.0143 0.576855 67.0379 0.554379 67.0633L0.537323 67.0831L0.528694 67.0932C0.526485 67.0953 0.523273 67.099 0.512035 67.1143C0.392616 67.2749 0.289597 67.4464 0.204414 67.6262C0.157455 67.7366 0.127357 67.8341 0.0936432 67.9449L0.049099 68.109C0.0394669 68.1646 0.0316391 68.2208 0.0246124 68.2774C-0.049633 68.731 0.0563202 69.1892 0.179733 69.5099C0.250771 69.6672 0.322609 69.7947 0.373978 69.8817C0.423744 69.9704 0.462475 70.0134 0.462475 70.0134L0.441605 69.9824C0.427959 69.963 0.410702 69.9338 0.392239 69.8972C0.354313 69.8247 0.306156 69.7263 0.263615 69.6269C0.223274 69.5369 0.191761 69.4435 0.169495 69.3479L0.138794 69.2183C0.162876 69.3054 0.189564 69.3897 0.218056 69.4705C0.24836 69.5504 0.288494 69.6248 0.325619 69.6978C0.363747 69.7705 0.403278 69.8398 0.443413 69.9059C0.485153 69.9706 0.53331 70.0283 0.578861 70.0857C0.625015 70.1425 0.67157 70.1963 0.717922 70.2475L0.75264 70.2853L0.769897 70.3037L0.774315 70.3081L0.776524 70.3104L0.891907 70.4114L0.895924 70.4147L0.92662 70.4395C0.967358 70.4716 1.00568 70.5019 1.0414 70.5306C1.24468 70.6763 1.55352 70.8357 1.71064 70.877C1.88261 70.9276 2.03291 70.9702 2.16616 70.982C2.43425 71.0103 2.62228 71.0031 2.76897 70.9752C2.91565 70.9496 3.02181 70.9301 3.12334 70.889C3.22549 70.8514 3.32663 70.8115 3.46027 70.7561C3.5877 70.6898 3.75846 70.6115 3.96495 70.4637C4.01971 70.4224 4.07358 70.3799 4.1265 70.3364L4.21379 70.2628L4.25874 70.2234L4.2798 70.2033L4.45699 70.0365C4.63165 69.8768 4.80872 69.7196 4.98817 69.5649C5.61024 69.1448 6.18837 68.606 7.20055 67.5847C6.43078 68.2875 7.05767 67.5952 6.72155 67.8149C7.44636 67.0397 7.78128 66.8653 8.21413 66.5179C8.35941 66.2823 8.45734 66.1099 7.78229 66.7754C7.59346 66.758 8.69774 65.926 8.65339 65.763C10.9169 63.5837 10.8088 64.3465 13.3179 61.6667L13.1759 61.721C14.9072 60.1525 15.8239 59.1683 17.4114 57.7008L18.5255 56.4141C18.2351 56.6619 17.4178 57.2933 17.7084 56.9108C17.224 57.5923 16.5537 58.1646 15.972 58.8408C15.8779 58.8765 16.1183 58.6042 16.2142 58.4773C15.8281 58.8519 15.6836 59.0871 15.1535 59.5622C15.1555 59.5164 15.6852 58.9516 15.2518 59.3444L14.6247 60.0812C13.6621 60.9481 14.0036 60.3662 12.9425 61.4513C13.2062 61.3137 13.7089 60.9979 14.1465 60.6036C13.6605 61.0984 14.8487 59.9964 14.4295 60.4713C13.6204 61.0789 13.3444 61.4828 12.3319 62.3518C12.4567 62.2555 12.5038 62.2437 12.7448 62.0219L11.3953 63.3983C11.6859 63.016 10.1913 64.4492 10.2423 64.2491C11.6885 62.7901 11.3012 63.2553 12.9419 61.5855C12.4472 62.029 11.7525 62.5462 11.3911 62.7537C11.3795 62.7707 11.3576 62.7967 11.3072 62.848C10.9723 63.0218 11.2141 62.7484 11.0739 62.6227C11.9394 61.9728 12.3742 61.3999 13.3368 60.5774C13.5814 60.4842 12.905 61.1769 12.4348 61.5937L13.2832 60.8694L13.0918 60.9884L15.0955 59.0059C14.7072 59.3732 14.5336 59.4577 14.3008 59.6203C14.5597 59.3647 14.7993 59.0954 15.0535 58.8087C15.0662 58.9328 15.1527 58.9456 15.4067 58.698C16.695 57.4216 17.3572 56.6595 17.7582 56.1166L17.9151 55.9748C17.7688 56.256 18.9722 55.2056 19.4506 54.8865C19.3557 54.8338 20.0783 54.1938 20.4162 53.7935C20.7026 53.6833 20.5541 54.0557 20.1662 54.5656C19.205 55.342 19.5925 54.9665 19.0639 55.2616L17.5739 56.5569L17.9588 56.3176C17.2826 57.029 16.5134 57.5971 16.6543 57.633C17.0871 57.3299 17.6674 56.6998 18.0975 56.3997L17.6628 56.8826C18.5751 56.1709 18.0012 56.3929 19.0607 55.4879C18.7691 55.9157 19.1566 55.4058 19.635 55.0419C19.3446 55.4246 17.8555 56.7184 18.2845 56.5532C18.8598 56.1062 19.8802 54.7206 20.6954 54.1812L20.6472 54.1996C21.6439 53.2049 22.0735 52.9321 22.4994 52.6107C22.8887 52.154 23.5428 51.6359 24.015 51.1889L23.9661 51.1637L24.6411 50.5422C24.259 50.7795 23.8701 51.2901 23.2938 51.8275L23.2946 51.6923C22.7243 52.4026 22.163 52.7017 21.5968 53.1328C22.3942 52.4795 23.661 51.1069 23.9701 51.0711L24.3558 50.5631L24.5994 50.3769C24.8863 49.9979 24.4567 50.2529 23.7822 50.8737C23.6855 51.0012 23.6368 51.0647 23.6861 51.0453C23.3492 51.3106 23.0143 51.5295 22.2907 52.2594L22.7221 51.9137C21.8061 52.8079 20.9416 53.5907 20.5579 53.8292C21.8586 52.5171 23.1604 51.2486 24.4121 50.046C24.9377 49.8421 25.4631 49.5056 25.797 49.4655C26.6619 48.6827 27.8195 47.6037 28.4936 46.8494L28.3978 46.886C28.7031 46.566 29.0251 46.2613 29.3627 45.9731C29.6994 45.5737 29.0285 46.1465 29.2691 45.8739L30.5183 44.7625C30.378 44.77 29.3681 45.7448 28.8837 46.2034C28.9798 46.1213 29.1734 45.9556 29.1237 46.0209C28.5931 46.5857 27.4412 47.4803 27.2932 47.8083C27.0046 48.0546 27.9158 47.3435 27.0008 48.2367C26.4206 48.8664 26.1343 48.977 26.0412 49.0115C25.9936 48.985 26.9568 48.0284 26.5723 48.3121C27.0566 47.8536 27.296 47.7159 27.8731 47.0889C27.3933 47.5434 26.6717 48.0933 26.4768 48.3938C25.4671 49.2337 25.4259 48.9336 25.8594 48.4963C25.809 48.6515 27.6415 46.9068 26.4812 48.166C27.1057 47.7 28.1175 46.7242 28.8859 46.0676L28.8387 46.0858L29.7554 45.2349C29.6091 45.3379 29.3205 45.5844 29.2744 45.5569L30.62 44.4517C29.8517 45.0632 31.0077 43.9871 31.2969 43.6502C31.4875 43.5767 32.0159 43.1477 31.5821 43.63C31.099 44.1766 31.2455 43.8947 30.7641 44.3512L31.5301 43.7864L31.5792 43.7218L32.0601 43.401C32.9749 42.5074 31.4859 43.6228 32.7373 42.5545L32.6847 42.8C34.0348 41.4677 35.6741 39.6656 36.6853 38.7794C36.3618 38.9809 36.1523 39.0049 36.4633 38.5988C36.0648 39.0171 35.2256 39.8206 34.6196 40.3873C34.5227 40.5152 35.4841 39.783 36.1104 39.1363C35.9617 39.599 34.3806 40.6136 34.4719 40.8489C32.8794 42.4996 33.079 41.8823 31.7759 43.3305C31.6818 43.277 31.3411 43.6798 31.2014 43.6874C31.4942 43.1689 33.0789 41.8825 33.9455 40.9632C33.851 41.0438 33.6608 41.206 33.6116 41.2261C34.2397 40.5772 34.5251 40.3341 35.0069 39.9223L34.9585 39.9861C35.825 39.2905 35.3936 39.4581 35.8278 38.9755C36.0199 38.8114 36.6476 38.1636 36.598 38.3175L37.3726 37.4324L37.4153 37.5523C37.8971 37.0964 37.9465 36.9426 38.4297 36.5741L38.5244 36.6268L37.3657 37.7957C37.9906 37.2396 37.6047 37.7031 38.2802 37.0811C37.8708 37.3975 37.9908 37.2617 38.2136 37.0296C38.3249 36.9133 38.462 36.7734 38.5714 36.6539C38.6189 36.6027 38.6645 36.5498 38.708 36.4954C38.7227 36.4766 38.7365 36.4571 38.7494 36.4371C38.7626 36.421 38.7733 36.403 38.7809 36.3838C38.895 36.2846 39.0094 36.1854 39.1168 36.0816L39.3407 35.8531L39.4537 35.7375C39.4914 35.6987 39.5155 35.6541 39.5472 35.6125L39.4645 35.7198L39.3624 35.8181L39.4505 35.7006L39.5133 35.5875C39.5528 35.5154 39.5972 35.454 39.6195 35.386L39.7001 35.2004C39.7228 35.1397 39.7375 35.0777 39.7573 35.0163C39.8027 34.894 39.8147 34.76 39.833 34.6003C39.8304 34.5203 39.8256 34.4331 39.8167 34.3368C39.8027 34.2413 39.7724 34.1388 39.7447 34.0235L39.83 34.3124C39.8458 34.4089 39.8595 34.5036 39.8715 34.5974C39.8729 34.691 39.8687 34.7836 39.8647 34.8758C39.8567 34.9675 39.8342 35.056 39.8191 35.1463C39.7744 35.3226 39.7142 35.4987 39.6122 35.6613C39.5719 35.7473 39.5025 35.8243 39.4357 35.905L39.2266 36.1531L38.8381 36.516C38.7506 36.5935 38.6655 36.6655 38.568 36.7461L38.7937 36.5594C38.8226 36.5367 38.9139 36.4536 38.9886 36.3865L39.2384 36.1606C39.4136 35.9665 39.6231 35.7634 39.7509 35.5263C39.8715 35.2845 39.963 35.0239 39.9871 34.7712C40.0481 34.2624 39.8773 33.8456 39.8001 33.6672C39.6913 33.4033 39.4662 33.2047 39.2847 33.004C39.1068 32.817 38.8822 32.5785 38.8015 32.5202C38.5776 32.3258 38.3526 32.1402 38.1094 31.9137C38.5529 32.3708 38.416 32.3479 38.4046 32.4262C38.399 32.4653 38.4247 32.5297 38.57 32.6918L38.9855 33.1369L39.3536 33.5207C39.4134 33.5969 39.4611 33.6839 39.5207 33.7724C39.5627 33.8695 39.6142 33.9702 39.6502 34.083C39.6546 34.0113 39.5334 33.7242 39.4461 33.635C39.6219 33.7825 39.8294 34.2173 39.7772 34.7263C39.7601 34.9797 39.6594 35.2345 39.5358 35.4615C39.4027 35.6834 39.1985 35.8642 39.0383 36.0308L38.6731 36.3427C38.7225 36.2474 38.6043 36.3299 38.5876 36.3203C38.5774 36.3174 38.5657 36.3174 38.6087 36.2647C38.6544 36.2094 38.7449 36.1112 38.9053 35.9444L39.1242 35.6791C39.0592 35.7706 39.0847 35.7673 39.175 35.6909C39.1973 35.6716 39.2249 35.6483 39.2536 35.6197L39.3361 35.515C39.365 35.4753 39.4013 35.434 39.4306 35.384C39.4563 35.3319 39.484 35.2765 39.5133 35.2178C39.6159 34.9793 39.6943 34.6559 39.6357 34.319C39.5783 33.9824 39.4258 33.6531 39.1505 33.4149L39.1601 33.5403C39.1668 33.6004 39.1613 33.661 39.1589 33.6622C39.1658 33.6591 39.0801 33.573 38.953 33.4442L38.4955 32.9803L37.9995 32.5148L38.0853 32.6085C37.6417 32.3264 37.0563 31.5865 36.3379 30.9791C35.8936 30.4689 33.9943 28.6995 34.9202 29.3558C34.2419 28.8431 33.8049 28.2402 33.1609 27.5878L34.0314 28.3355C33.1433 27.3154 33.369 27.6384 32.7247 26.7577C32.6139 26.7128 32.414 26.571 32.5382 26.7562C31.2257 25.5009 29.3269 23.7317 28.6569 22.8988C27.731 22.0147 27.4479 22.009 26.2103 20.709C25.9549 20.4303 26.5322 20.8076 25.6432 20.0144C25.577 19.9673 26.3797 20.8938 25.4364 19.9649C24.8484 19.2225 23.7931 18.4748 22.989 17.5467C22.4903 17.1284 21.6943 16.3357 21.7908 16.5677C22.5453 17.2644 23.575 18.2874 23.6998 18.4742C23.641 18.3341 24.2665 18.9408 23.7558 18.3833C24.9257 19.4083 24.4356 19.1254 25.4735 20.056C25.5138 20.1504 24.8797 19.6358 24.6909 19.4038C24.5883 19.4937 26.6173 21.3549 25.6101 20.6092C24.5321 19.5846 24.4186 19.081 23.3887 18.2855C23.7008 18.7017 24.3323 19.2142 24.7015 19.7691L23.9006 19.0715L23.4184 18.4696L23.4371 18.5153C22.0023 17.3028 22.2935 17.2164 21.1388 16.0069C21.904 16.6148 21.1471 15.6874 21.7131 16.1538C20.9207 15.3647 20.3167 14.8065 20.2133 14.8958C21.6393 16.4266 20.1953 15.0781 21.4898 16.5165C21.2263 16.3297 21.678 16.9747 20.8376 16.1842C19.9727 15.2143 21.1988 16.3755 20.2988 15.4443C20.235 15.3995 20.169 15.3528 20.1871 15.3982C19.8092 14.9351 19.6685 14.9328 19.2058 14.3775L19.3091 14.5152C18.6102 13.9549 18.6768 13.7745 18.0612 13.3052C18.3541 13.4479 17.7509 12.8906 17.4549 12.5173C18.0407 13.0297 18.4469 13.2208 19.5425 14.2897C19.6182 14.4736 19.5058 14.4267 19.9304 14.8903L19.2216 14.1923C19.3667 14.3505 19.4695 14.4784 19.5995 14.6263L20.3171 15.2614C19.4861 14.38 19.9473 14.7069 19.6366 14.2915C18.8137 13.5453 18.9941 13.6406 18.4735 13.1743C18.4398 13.3043 16.7913 11.8279 15.8185 10.9932L16.2481 11.4014C16.8624 12.097 15.7188 11.0259 15.671 11.0244L15.2267 10.5142C15.3126 10.6082 15.4194 10.7494 15.2 10.5607C14.5573 9.91011 14.6791 9.86632 14.0377 9.21647C13.9418 9.21376 14.4272 9.81807 13.994 9.44703C13.8128 9.35016 13.2561 9.02078 12.4242 8.13804C12.38 8.06112 12.1635 7.83287 11.9088 7.57228C11.9428 7.60986 11.9869 7.65578 12 7.67497L11.3692 7.16365C11.7842 7.7172 12.4059 8.0927 12.8233 8.64896L12.7902 8.76231C13.1765 9.13587 13.6689 9.67412 13.8714 9.94479C13.2692 9.38813 13.1648 9.24921 12.5215 8.59781C12.3816 8.55461 12.8103 9.03686 12.8721 9.10642L12.8169 8.97001C13.6651 9.66869 13.9198 10.1742 14.9121 11.1054C15.0628 11.2451 14.9781 11.1526 14.9594 11.1071C15.6786 11.9424 16.5555 12.5961 17.2294 13.4322L17.0179 13.1516L19.4135 15.8076L19.3924 15.8438C19.2612 15.751 19.6467 16.1213 19.8648 16.3088L19.8642 16.3075L21.1814 17.7598C20.9992 17.6259 20.8251 17.482 20.66 17.3287C20.5338 17.1404 19.5644 16.259 19.7715 16.3082C19.2897 15.9339 18.6565 15.1922 18.3078 14.9124C18.9397 15.4257 17.9763 14.4501 17.9175 14.3101C17.6725 14.1688 17.0592 13.474 17.0689 13.6116C16.9368 13.5174 17.3988 13.8449 17.6064 14.1221C18.1541 14.7702 16.4363 13.0974 17.1367 13.8871C16.2178 12.91 14.9251 11.701 13.9904 10.6805L14.5749 11.1926C14.1224 10.7744 13.0896 9.74852 12.9792 9.70376C13.3005 10.0289 13.6858 10.3993 14.0933 10.8184C14.039 10.9105 13.0826 9.84152 12.9895 9.84093L11.891 8.54124L12.4304 9.0541C12.1386 8.68461 10.9645 7.65695 10.1245 6.86604C10.4979 7.42444 11.3735 8.077 12.205 8.95955C12.8002 9.60921 11.7148 8.67686 12.2903 9.28002C12.1107 9.15272 11.722 8.772 11.5547 8.56081L11.2996 8.3502C11.7417 8.95703 12.9626 10.0957 13.6814 10.9444C13.6212 10.8671 13.5706 10.7979 13.5594 10.7659C14.2105 11.3249 14.8338 11.9296 15.4087 12.5324C15.0622 12.2545 14.9566 12.1141 14.786 11.9284C14.7405 11.9288 15.2967 12.4851 15.4854 12.7164C14.9002 12.204 15.3264 12.669 14.958 12.3431C15.2992 12.7153 15.6 12.9931 16.0523 13.4112C16.3172 13.599 15.911 13.1811 16.0039 13.1818C16.4321 13.6488 16.751 13.7435 17.3648 14.4393C16.4578 13.6009 17.4985 14.7619 17.7732 15.087L17.6211 14.9465C17.8485 15.2705 18.0852 15.5032 18.3291 15.6433C17.9879 15.2711 17.6211 14.9465 17.7794 14.9932C18.017 15.2273 18.2538 15.4606 18.5093 15.7388L18.3018 15.4619L19.4829 16.6244C19.6232 16.8537 19.8702 17.2243 19.9637 17.4527C20.2938 17.6866 20.6554 18.1067 20.9101 18.3849L20.8041 18.2434C21.3716 18.7114 22.5074 19.8749 22.5632 20.0116C22.9772 20.3375 20.1798 17.1828 22.7966 19.7863C23.8059 20.7619 23.2886 20.5259 23.8178 21.128C23.8178 21.128 23.7991 21.0833 23.8653 21.1298C24.3172 21.5469 24.3096 21.6399 24.6507 22.0121C24.365 21.7763 23.9799 21.4065 23.8762 21.2679C23.952 21.4516 24.8016 22.1518 25.0952 22.5223C24.7439 22.0127 25.9832 23.3146 25.6872 22.9416C26.6229 23.7354 27.493 24.7102 27.8895 25.2188C28.5969 25.6877 28.9208 26.2428 29.94 27.128C29.7879 26.9875 29.5344 26.7109 29.3145 26.5214C28.8331 25.9207 30.3544 27.4543 29.5693 26.5721C29.7399 26.7581 29.5449 26.6206 29.3697 26.4301C29.0518 26.1079 28.7759 25.7818 28.8897 25.8301L29.7407 26.5318L29.4823 26.2495L30.7655 27.3223C30.784 27.3675 30.6542 27.276 30.5877 27.229C32.0141 28.5331 33.5538 30.1124 34.7819 31.2759C34.797 31.4818 35.5244 32.2253 36.3558 33.0507L36.9893 33.6779L37.3029 33.9896L37.4213 34.1093L37.4886 34.1808C37.5762 34.2733 37.6595 34.3618 37.6766 34.466C37.6983 34.567 37.6712 34.6617 37.6234 34.7235C37.6932 34.6596 37.7552 34.5929 37.8114 34.5563C37.869 34.5195 37.9266 34.5139 37.9672 34.5786C37.9728 34.4924 37.9756 34.3482 37.8851 34.2056C37.8411 34.1345 37.7781 34.0644 37.7107 33.9869C37.6758 33.9479 37.6415 33.9113 37.5995 33.8699C37.5399 33.811 37.4779 33.7524 37.4137 33.6943C37.3023 33.6484 36.6524 33.0904 37.0112 33.5072C35.6599 32.1588 37.2841 33.6027 36.9524 33.14L37.3292 33.5176L37.6649 33.8629C37.8074 34.0268 37.9625 34.1568 38.0304 34.3252C38.0614 34.4047 38.0745 34.4897 38.0689 34.5744C38.0633 34.6592 38.0391 34.7419 37.9979 34.8169C37.9222 34.9634 37.7805 35.0514 37.6674 35.1393L37.5197 35.2504L37.2877 35.4451L36.8276 35.8403L36.8268 35.8864L36.0568 36.5442C36.6365 35.9589 36.4948 35.8789 35.77 36.6547L35.8686 36.5702C35.4799 37.0366 34.5174 37.8585 33.844 38.523L33.3172 38.9061C32.6428 39.5718 32.7343 39.717 32.5852 40.0008C31.5249 41.0411 30.8085 41.5411 29.9903 42.2172C29.6998 42.5996 28.1115 44.1574 29.0237 43.4002C28.0132 44.286 27.9249 43.8251 26.4281 45.5732L26.9081 45.2079C25.3166 46.7241 22.9607 48.8032 22.2859 49.5583C23.0518 49.1717 20.4973 51.6446 20.3955 52.0891C20.4331 51.974 19.8252 52.5343 19.7169 52.5967C19.6077 52.7426 19.4115 52.9716 19.1444 53.1578C19.7249 52.5277 18.5249 53.3965 19.7757 52.3284C19.0563 52.7856 18.1918 53.4349 16.8913 54.7024L16.9858 54.7557L17.997 53.7354C17.9476 53.8894 18.4757 53.3717 18.7194 53.1857C16.8381 55.0832 19.1462 53.1117 17.1702 55.0006C16.9318 55.137 17.0749 55.0374 16.5447 55.5125C16.7875 55.2829 16.8824 55.2909 16.4961 55.6658L16.0645 55.9673C15.5026 56.7506 17.2822 54.9483 16.7841 55.5987C17.602 54.9223 18.9483 53.6831 18.7988 54.0119C17.5936 55.2424 17.5047 54.9161 16.2517 56.2096L16.1546 56.3823C15.671 56.7957 15.5315 56.8033 15.242 57.006C15.2426 57.0501 15.1442 57.1788 14.8579 57.4679C13.992 58.1183 13.462 58.5936 12.6467 59.1779C14.6159 57.4289 14.1897 57.5471 16.211 55.7311C15.8741 55.9963 14.4778 57.3007 14.2902 57.2823L14.3835 57.3371C13.7103 57.912 13.0376 58.487 12.2654 59.2799L12.794 58.8511C11.6859 59.8202 11.1521 60.6555 10.1945 61.3398C10.4821 61.0494 10.7233 60.8208 10.9163 60.6565C10.3394 61.1492 9.66497 61.8149 9.08684 62.3974L7.74115 63.4582C7.78891 63.4837 7.01674 64.2338 7.44958 63.9301C6.62643 64.835 6.10007 65.1277 5.57312 65.6007C4.75138 66.5478 6.38904 64.8813 6.58068 64.8958C5.37365 66.1279 4.02656 67.3685 3.2586 67.9798C3.49679 67.7207 3.60676 67.5894 3.57586 67.5843C3.56181 67.6434 3.05532 68.1206 2.77719 68.3905L2.53699 68.5287L2.52696 68.5399L2.52435 68.5426L2.55024 68.5674H2.55064L2.55204 68.5684L2.55626 68.5723C2.56014 68.5764 2.56363 68.5808 2.56669 68.5855C2.56709 68.5864 2.56488 68.5816 2.56649 68.5843C2.57071 68.5924 2.56489 68.5795 2.5679 68.5868C2.5709 68.5971 2.57594 68.6067 2.58274 68.6151C2.58495 68.617 2.59458 68.6298 2.59819 68.6289C2.60123 68.6289 2.60424 68.6294 2.60703 68.6306L2.61405 68.6333C2.61987 68.6304 2.61264 68.6444 2.63131 68.6277C2.62228 68.637 2.61987 68.6385 2.62007 68.6372L2.61706 68.6376L2.61245 68.6395C2.60883 68.6397 2.61084 68.6488 2.60542 68.6457C2.59518 68.6387 2.59559 68.6519 2.58555 68.6411C2.57432 68.6453 2.56168 68.6168 2.55746 68.6168C2.55726 68.611 2.55726 68.6077 2.55626 68.6073C2.55867 68.6073 2.54823 68.6077 2.56047 68.6091C2.58171 68.6124 2.60128 68.6223 2.61626 68.6372L2.62709 68.6494C2.6283 68.6517 2.63934 68.6645 2.62569 68.6527L2.52616 68.574L2.47599 68.5359L2.47559 68.5357L2.54863 68.5994L2.54884 68.5992L2.54903 68.5988L2.54923 68.5984L2.54943 68.5975V68.5965C2.54863 68.5957 2.54542 68.5971 2.5392 68.5994C2.539 68.5975 2.52395 68.6035 2.51231 68.6029C2.50428 68.6099 2.51291 68.6097 2.50469 68.619C2.50168 68.6261 2.51051 68.6267 2.50629 68.638L2.50589 68.6399L2.50568 68.6409L2.50549 68.6413C2.47499 68.6143 2.57412 68.7011 2.43666 68.5812L2.43726 68.5818L2.43987 68.5839L2.45993 68.601L2.49966 68.6351L2.58034 68.7031L2.58937 68.7106L2.58676 68.706L2.58054 68.6973C2.57615 68.6918 2.57095 68.687 2.56509 68.6831C2.55437 68.6761 2.54205 68.6716 2.52916 68.6701C2.54166 68.6761 2.55546 68.679 2.56937 68.6786C2.58329 68.6782 2.5969 68.6746 2.60903 68.668C2.61465 68.6661 2.62288 68.6665 2.62469 68.6573C2.62588 68.6561 2.62733 68.655 2.62895 68.6543C2.63057 68.6535 2.63233 68.6531 2.63412 68.6531C2.63271 68.6572 2.64495 68.6451 2.65699 68.6333L2.69051 68.6008L2.94415 68.3566C3.10349 68.2055 3.24134 68.079 3.3495 67.9926C3.12926 68.1924 2.91336 68.3965 2.70195 68.605L2.64817 68.6585C2.64054 68.6641 2.64054 68.6616 2.63733 68.6643C2.63231 68.6668 2.63191 68.6757 2.6281 68.68C2.62248 68.6808 2.61866 68.6839 2.61565 68.6897C2.61425 68.699 2.60682 68.6959 2.60281 68.6996C2.59779 68.7011 2.59499 68.712 2.58897 68.7126C2.57753 68.7102 2.56669 68.7312 2.55385 68.7271C2.54639 68.7292 2.53938 68.7326 2.53318 68.7372C2.52679 68.7353 2.51995 68.7352 2.51351 68.737C2.48181 68.7405 2.52435 68.7478 2.52435 68.7746L2.52555 68.7844C2.52595 68.7883 2.51151 68.7759 2.50508 68.7724L2.45512 68.7387L2.40475 68.7046L2.37927 68.6876L2.36662 68.6788L2.36021 68.6746L2.35859 68.6734C2.47739 68.7771 2.39151 68.7019 2.418 68.7253L2.41779 68.7252L2.41719 68.7244C2.41134 68.7175 2.4041 68.7118 2.39592 68.7077C2.38508 68.704 2.37566 68.6988 2.37284 68.6897C2.33512 68.6668 2.32649 68.6188 2.31826 68.5672C2.31144 68.544 2.32749 68.5041 2.32589 68.4932C2.32549 68.4973 2.32267 68.5008 2.31806 68.5027C2.31527 68.5039 2.31228 68.5046 2.30923 68.5047H2.30382C2.30141 68.5049 2.31184 68.4942 2.31545 68.4895L2.37806 68.4153L2.41017 68.3776L2.42642 68.3582L2.43044 68.3535L2.38147 68.406L2.38268 68.4049L2.38488 68.4026L2.39411 68.3938C2.61736 68.1802 2.8436 67.9695 3.07278 67.7618C3.07418 67.7155 2.6889 68.0001 3.07519 67.626C3.98964 66.7777 3.4095 67.4966 3.74361 67.2784C3.38342 67.5971 3.13037 67.8409 2.92509 68.061C2.82255 68.171 2.73184 68.2751 2.64536 68.3797L2.51833 68.5372L2.51813 68.5376L2.58094 68.4704L2.58054 68.4709L2.57973 68.4725L2.57793 68.4752L2.57452 68.4804L2.5677 68.4913L2.55425 68.5126L2.52736 68.556C2.51151 68.5831 2.48643 68.6186 2.4778 68.6399C2.46817 68.6486 2.52716 68.6021 2.57713 68.5638C2.58968 68.5539 2.60232 68.5442 2.61505 68.5345L2.63271 68.5209L2.63693 68.5176L2.63793 68.5169L2.63853 68.5165L2.63873 68.5163L2.63893 68.5161L2.5707 68.5889L2.57291 68.5876L2.58114 68.5826L2.61606 68.5607C2.62348 68.514 3.05573 68.0945 3.16368 67.9521L3.35572 67.922C3.21526 67.8856 3.84074 67.1509 4.41907 66.6568C3.93285 67.2509 4.07833 67.104 4.02997 67.3466C4.89245 66.6995 4.80034 66.4206 5.76094 65.6894C5.66803 65.7241 4.89666 66.4274 5.52275 65.7807C6.05512 65.2591 6.05312 65.3951 6.43499 65.069C5.9556 65.3885 6.00456 65.2349 5.4776 65.574C4.51519 66.485 5.09412 65.9462 4.13031 66.8142L4.85593 65.9925C4.03659 66.7603 4.18389 66.4774 4.08917 66.514C5.39252 65.1099 5.24081 65.6195 6.1085 64.7441C6.5871 64.3802 5.28817 65.5567 6.01057 64.9623C6.8293 64.1508 6.24817 64.8262 7.21158 63.9582L7.02155 64.0758C7.26215 63.7583 7.59787 63.539 7.9348 63.2284C8.31948 62.9003 7.78228 63.8732 9.27687 62.44C9.18316 62.4906 9.14323 62.5037 9.1346 62.4954L7.05867 63.2968C8.72507 61.6898 10.3711 60.0633 11.9965 58.4177C12.2863 57.9029 10.6488 59.5252 10.7008 59.3688L9.92865 60.1626C10.025 60.1692 11.6145 58.5655 10.9862 59.3486C9.54155 60.6718 8.96222 61.3459 7.52041 62.5324C7.81319 62.0139 9.30075 60.8553 10.0749 59.9254C9.71814 60.2852 9.39687 60.5697 9.08041 60.8415L11.6456 58.2658L11.8838 58.0927C11.2719 58.71 10.8497 59.1378 10.7983 59.1958C11.6169 58.3847 12.3838 57.7748 12.5283 57.8077L12.384 57.953L12.7117 57.6907C12.9014 57.4979 13.0902 57.3045 13.278 57.1123ZM5.8665 4.98683C5.90844 5.04379 5.93814 5.09184 5.95499 5.13214C5.93753 5.0901 5.97987 5.1149 5.8665 4.98683ZM6.1697 66.8136L4.53626 68.439L3.72937 69.2431L3.5293 69.4417C3.50161 69.4721 3.45044 69.5139 3.40288 69.5521C3.35371 69.5885 3.31037 69.6333 3.25478 69.6608C3.04368 69.792 2.79525 69.8505 2.54943 69.8565C2.77077 69.8359 2.98449 69.7813 3.15646 69.6683C3.24756 69.6207 3.32101 69.5536 3.39064 69.4866C3.4697 69.4176 3.5004 69.3665 3.55418 69.308L4.08014 68.6864C4.38897 68.3163 4.60409 68.0445 4.66509 67.9325C4.72609 67.8205 4.63258 67.8686 4.32395 68.1381C4.16964 68.2727 3.96154 68.4628 3.69225 68.7159L3.24114 69.1437C3.1992 69.1871 3.15766 69.2163 3.11552 69.2495L3.05171 69.2996L2.97666 69.3368L2.9004 69.376L2.81552 69.3998C2.78662 69.4074 2.75833 69.418 2.72843 69.4238L2.63612 69.432C2.63512 69.4442 2.37726 69.4089 2.38047 69.4002C2.50649 69.4139 2.6606 69.4211 2.81552 69.3638C2.89619 69.3461 2.96803 69.2965 3.04388 69.2545L3.14783 69.1702C3.18415 69.1408 3.22448 69.0968 3.26341 69.0602C3.59735 68.7343 3.93544 68.4125 4.2776 68.0947C4.78664 67.7072 5.29876 67.3236 5.81392 66.9438L6.56944 66.3918C6.7667 66.2503 6.89212 66.1643 6.89232 66.1738C6.74703 66.4094 6.40971 66.6311 6.07118 66.987L6.1697 66.8136ZM6.66055 65.7691C7.26757 65.1448 7.16423 65.3205 7.29647 65.2605L6.62443 65.8836C6.69888 65.7946 6.72757 65.7427 6.66055 65.7691ZM7.29406 65.3306C7.22442 65.3994 7.16603 65.4591 7.13934 65.4941L7.29406 65.3306ZM7.76102 62.172L7.69459 62.2321L8.13767 61.7884C8.08329 61.8519 7.97313 61.9666 7.76102 62.172ZM6.57506 63.4837L6.36175 63.5653L6.77734 63.1495C6.75908 63.2237 6.73479 63.2962 6.57506 63.4837ZM2.69753 67.6368C2.61385 67.6804 2.49686 67.7649 2.36623 67.8668L2.16234 68.0296L2.10997 68.0722L2.08368 68.0935L2.07063 68.1044L2.07024 68.1048C2.07907 68.0951 2.04957 68.1265 2.0901 68.0834L2.0895 68.0842L2.08789 68.0858L2.08488 68.0889L2.07887 68.0947L1.98375 68.1896C1.94422 68.2249 1.9382 68.2437 1.92435 68.2636C1.91131 68.2846 1.89345 68.3006 1.8792 68.3241C1.85933 68.378 1.82281 68.4254 1.81178 68.4729C1.79873 68.5196 1.78027 68.5603 1.76722 68.592C1.7588 68.6238 1.74696 68.6463 1.73191 68.6552C1.71947 68.6883 1.70281 68.6537 1.68916 68.5773L1.69258 68.4363C1.6994 68.3828 1.71967 68.3252 1.73331 68.2642C1.74715 68.2338 1.76421 68.2057 1.77926 68.1757C1.79572 68.146 1.80435 68.1154 1.83505 68.084L1.91372 67.9893L1.93358 67.9654C1.93864 67.9605 1.94365 67.9555 1.94863 67.9505L1.99358 67.9062C2.11378 67.788 2.23739 67.6659 2.36481 67.5402C2.38669 67.544 2.4501 67.5062 2.54703 67.4351C2.30402 67.6913 2.15632 67.8767 2.31425 67.8302C2.84823 67.0835 2.98509 67.347 3.66094 66.6349C3.9487 66.4786 2.93693 67.4545 2.69753 67.6368ZM23.1822 19.2651C23.1544 19.2533 23.0655 19.206 22.9436 19.1365L23.3974 19.6596C24.3046 20.4982 25.1442 21.061 25.8333 21.9393C26.235 22.2737 26.4939 22.4105 26.7333 22.5486C26.5467 22.3752 26.3707 22.2142 26.2206 22.0838C24.1412 19.7644 24.8819 21.1203 23.1822 19.2651ZM33.548 28.9702C33.4621 28.8764 33.4437 28.8307 33.4437 28.8307C35.2637 30.9045 36.8498 32.5275 37.9256 33.554C37.6533 33.4167 36.6435 32.5388 36.1611 32.1249L36.4908 32.5862L36.8011 32.7734L37.4348 33.5151C37.189 33.3739 36.6333 32.8174 36.2167 32.489C36.1979 32.4436 35.0727 31.1904 34.7797 30.8194L35.7989 31.7047C35.5168 31.4722 34.2498 30.2159 33.7595 29.7061C33.7868 29.6606 34.7213 30.4526 34.7512 30.6371C34.9106 30.6849 33.8996 29.7075 34.5983 30.2682C33.899 29.4794 32.6438 28.3622 32.0568 27.8482L31.8696 27.8461C31.2197 27.2879 31.5662 27.3378 30.7832 26.6851C31.6619 27.5684 30.5301 26.6367 31.2367 27.3322C30.9738 27.146 31.1342 27.4221 30.4262 26.7252C29.9536 26.0323 29.596 26.0719 29.1415 25.4243C28.7275 25.0984 29.4722 25.8861 28.7165 25.1878C27.9325 24.3068 28.0276 24.3095 28.0643 24.1727C28.8825 24.9144 28.8395 25.1449 29.5099 25.7504L28.3724 24.3573C28.6318 24.566 28.81 24.7338 28.9515 24.8822C28.701 24.6234 28.5034 24.3889 28.3461 24.1768L28.0934 23.8454C28.8255 24.5507 29.477 25.1758 29.6297 25.25L29.5722 25.1108C29.8708 25.3224 30.2617 25.7599 30.4246 25.9783C31.0746 26.6152 31.6683 27.3047 31.8674 27.3888L31.6583 27.1106C32.4516 27.8999 32.536 27.9918 33.548 28.9702ZM18.4156 55.0458C18.7448 54.4219 19.1426 53.7674 21.4467 51.5962L21.2566 51.7585C22.3043 50.5548 23.6249 49.7259 24.91 48.2716C24.1729 48.8679 24.2149 48.8379 23.3305 49.4281L24.1021 48.7697C23.8144 48.8809 24.5839 48.2243 25.1131 47.7054L24.54 48.0608C24.2494 48.3983 23.4305 49.2095 23.4315 49.1634C23.6245 48.9989 22.4657 50.3461 21.742 50.987C21.7442 50.8508 23.2368 49.4639 22.4693 49.9857C23.0933 49.475 23.0956 49.3391 23.7224 48.7807C23.097 49.2928 23.4847 48.8274 23.0038 49.1938L24.0156 48.2626C24.0182 48.2154 22.5251 49.6025 23.2493 48.7381C23.6815 48.3911 24.6929 47.3264 24.7868 47.3803L24.788 47.3346C25.5124 46.6039 25.2196 47.1222 26.0865 46.203C26.1349 46.229 25.9874 46.4216 25.6539 46.7287C25.3619 46.9785 25.2682 46.9695 24.6907 47.507C24.4948 47.8093 25.3673 46.8395 25.0727 47.3154C24.9265 47.5518 23.5328 48.7199 24.0588 48.4268L24.782 47.6975C24.8759 47.7515 25.4069 47.2305 25.4524 47.3034C25.932 46.8936 26.2742 46.4003 26.8011 46.0174C27.0411 45.8791 26.7967 46.2891 27.5211 45.5137C28.0071 44.8305 29.7873 43.1532 30.4619 42.5326L31.0862 42.022C31.0832 42.1139 29.9785 43.0794 30.4083 42.7798L31.3254 41.929L31.2273 41.9682C31.5188 41.6743 31.8544 41.4102 32.1427 41.1637C31.8086 41.3819 31.1825 42.0284 31.2331 41.8289C31.6397 41.4065 31.6752 41.3164 32.0783 40.956C31.988 41.0325 31.9075 41.0955 31.9071 41.0746C32.7277 40.217 32.8194 40.3622 33.059 40.18C34.0194 39.4488 32.2874 41.1067 32.4776 41.0785L35.0284 38.6986C34.7888 38.8809 34.5479 39.065 34.5967 38.9559C35.1758 38.3272 34.5502 38.884 35.4174 38.0538C35.4628 38.2161 36.5713 37.068 37.2431 36.5386C37.4843 36.2211 37.5343 36.156 36.9096 36.7566C36.9086 36.6239 37.7825 35.8316 38.0593 35.5522C38.0956 35.5237 38.1312 35.4944 38.166 35.4643C38.2477 35.3937 38.3556 35.3131 38.4478 35.2168C38.4939 35.1688 38.5431 35.1223 38.5728 35.0667C38.6067 35.0138 38.6436 34.9648 38.6599 34.914C38.629 35.0744 38.6157 35.1225 38.6884 35.0529C38.704 35.0345 38.7297 35.0105 38.749 34.9741C38.767 34.9372 38.7877 34.8913 38.8112 34.8361C38.8354 34.7811 38.8397 34.7121 38.8557 34.6354C38.8625 34.5481 38.859 34.4603 38.8453 34.3738L38.8525 34.3273C38.9127 34.5288 38.9219 34.7706 38.8375 35C38.7584 35.2343 38.5686 35.4162 38.3892 35.6092L37.8425 36.1672L37.3395 36.6684C37.0176 36.9823 36.7298 37.2462 36.5187 37.4039L36.7102 37.2855C35.7447 38.3332 34.3547 39.3196 34.0128 39.9024C34.1083 39.9103 33.8187 40.1128 33.9114 40.1676L33.0981 40.8401L33.2891 40.7214L31.9882 41.9449L32.0362 41.9256L30.3975 43.1828C30.3634 43.1528 30.3931 43.1047 30.1655 43.2778C29.9861 43.4237 29.8154 43.5794 29.6542 43.7439C29.653 43.7447 29.653 43.7447 29.6526 43.7445L29.653 43.7449C29.3476 44.0584 29.1845 44.3062 28.8156 44.6993L30.0176 43.5542C30.1704 43.5139 30.1264 43.6674 29.58 44.2698C29.8214 44.0408 29.9647 43.9857 29.6749 44.2779C29.6279 44.2953 28.8572 44.9993 29.0986 44.6805C27.9441 45.7563 26.2533 47.6698 24.4258 49.2308C25.7263 48.0972 23.5085 50.2601 24.9048 48.9557C24.0347 49.9671 23.9925 49.6679 23.0289 50.6249C22.9776 50.7361 23.5569 50.1072 23.8442 49.9508C22.2547 51.5539 20.9594 52.4597 19.4143 54.0036L19.4163 54.1353C19.1095 54.4141 18.7693 54.7239 18.4156 55.0458ZM15.2197 57.965L14.2745 58.8315L14.3628 58.7422L13.3982 59.566C13.9296 59.0007 14.2218 58.5721 13.4046 59.2927C13.499 59.2566 13.3055 59.5112 13.5939 59.2647C13.1117 59.8107 12.0024 60.9591 12.1976 60.5689C13.3031 59.6924 12.2992 60.2139 13.1634 59.5211C12.671 59.865 12.2811 60.3007 11.8498 60.6584C12.324 60.3104 11.8816 60.877 11.282 61.5084C10.9924 61.7556 10.2698 62.4842 9.78898 62.8953C9.8867 62.6775 9.45526 63.0234 10.1779 62.2945C9.76737 62.6444 9.38069 63.0196 9.02022 63.4177C9.21747 63.2483 9.55118 62.9414 9.55179 62.9856C9.30717 63.3351 8.94958 63.6755 8.77861 63.8889L8.30101 64.3302C8.34115 64.2804 8.37346 64.2353 8.39272 64.1991L7.817 64.6461C8.53881 64.0073 8.10717 64.3089 8.06102 64.2814C8.15433 64.3357 7.62536 64.7207 7.38637 64.9468L7.82162 64.374C7.53326 64.5757 7.00108 65.2765 7.05265 65.0756C8.11219 63.9919 8.54523 63.6 9.5554 62.67L9.21647 63.116C10.3731 62.0831 9.79761 62.3514 11.0498 61.1484C11.6249 60.701 12.9321 59.3384 13.0701 59.4221C12.8793 59.5401 13.748 58.5746 14.227 58.2103C14.8027 57.8527 16.2471 56.4848 15.8608 56.9482C15.4753 57.3228 14.8988 57.7705 14.6548 58.1352L15.426 57.4318L14.9899 57.9608C15.2243 57.6961 15.2542 57.7727 15.2197 57.965ZM3.84375 64.5374L3.87124 64.5081L3.83953 64.5395L3.84375 64.5374Z" fill="#202020"/>
</svg>
